<svg width="414" height="896" viewBox="0 0 414 896" fill="none" xmlns="http://www.w3.org/2000/svg">
<path d="M248.05 -12.7911C245.471 12.7136 205.568 29.535 203.872 30.2247C203.424 30.4102 202.937 30.4817 202.455 30.433C201.973 30.3843 201.511 30.2168 201.11 29.9455C199.585 28.9301 163.856 4.46287 166.435 -21.0419C167.047 -27.0304 170.009 -32.5315 174.673 -36.3383C179.336 -40.1452 185.318 -41.9469 191.308 -41.3481C198.832 -40.5875 205.093 -36.6861 208.646 -30.802C213.305 -35.8559 220.22 -38.4254 227.744 -37.6648C233.732 -37.0525 239.233 -34.0899 243.04 -29.4268C246.847 -24.7637 248.649 -18.781 248.05 -12.7911Z" fill="#537FE7"/>
<path d="M94.249 -17.7095C96.3866 -17.4934 98.2941 -18.0701 99.9716 -19.4395C101.649 -20.809 102.594 -22.5614 102.808 -24.6966C103.024 -26.8341 102.447 -28.7416 101.078 -30.4191C99.7081 -32.0966 97.9558 -33.042 95.8206 -33.2552C93.683 -33.4713 91.7755 -32.8946 90.098 -31.5252C88.4205 -30.1557 87.4752 -28.4034 87.2619 -26.2681C87.0458 -24.1306 87.6225 -22.2231 88.992 -20.5456C90.3615 -18.8681 92.1138 -17.9227 94.249 -17.7095ZM90.4674 19.6975C89.9492 19.6451 89.4408 19.4956 88.9423 19.2489C88.4438 19.0022 88.0165 18.6972 87.6606 18.3341C79.0483 9.02219 72.7722 0.551092 68.8322 -7.07921C64.8922 -14.7095 63.2363 -21.6325 63.8647 -27.8482C64.8469 -37.5643 68.7554 -44.9888 75.5902 -50.1217C82.425 -55.2545 89.9542 -57.4053 98.178 -56.5739C106.404 -55.7423 113.352 -52.128 119.021 -45.7311C124.69 -39.3341 127.033 -31.2778 126.048 -21.5619C125.419 -15.3436 122.411 -8.89079 117.024 -2.20343C111.636 4.48392 103.792 11.5262 93.4903 18.9234C93.0689 19.208 92.5893 19.4213 92.0514 19.5632C91.5136 19.7051 90.9856 19.7499 90.4674 19.6975Z" fill="#537FE7"/>
<path d="M-67.2841 -51.0004C-72.4609 -51.5237 -77.0312 -47.7926 -77.5545 -42.6159L-80.8548 -9.9698L-71.5274 -9.02685C-71.9025 -5.31616 -70.7882 -1.60842 -68.4296 1.28069C-66.071 4.1698 -62.6613 6.00363 -58.9506 6.37876C-55.2399 6.75388 -51.5322 5.63958 -48.6431 3.28098C-45.754 0.922377 -43.9201 -2.48732 -43.545 -6.19801L-15.5626 -3.36918C-15.9377 0.341518 -14.8234 4.04925 -12.4648 6.93836C-10.1062 9.82747 -6.69654 11.6613 -2.98585 12.0364C0.724843 12.4116 4.43258 11.2973 7.32169 8.93865C10.2108 6.58005 12.0446 3.17036 12.4198 -0.540338L21.7472 0.402607L23.1616 -13.5886C23.685 -18.7653 19.9539 -23.3356 14.7771 -23.859L5.44966 -24.8019L6.39261 -34.1294C6.91594 -39.3061 3.18483 -43.8765 -1.99191 -44.3998L-67.2841 -51.0004ZM-19.0222 -39.0544L-0.36725 -37.1685L-1.54593 -25.5091L-20.2008 -27.395L-19.0222 -39.0544ZM-70.3232 -44.2406L-51.6683 -42.3547L-52.847 -30.6953L-71.5019 -32.5812L-70.3232 -44.2406ZM-44.6727 -41.6475L-26.0178 -39.7616L-27.1964 -28.1022L-45.8514 -29.9881L-44.6727 -41.6475ZM-56.829 -14.608C-54.9736 -14.4205 -53.2688 -13.5035 -52.0895 -12.059C-50.9102 -10.6144 -50.353 -8.76057 -50.5406 -6.90522C-50.7282 -5.04988 -51.6451 -3.34503 -53.0896 -2.16573C-54.5342 -0.98643 -56.388 -0.429275 -58.2434 -0.616838C-60.0987 -0.804402 -61.8036 -1.72132 -62.9829 -3.16588C-64.1622 -4.61043 -64.7193 -6.46429 -64.5318 -8.31964C-64.3442 -10.175 -63.4273 -11.8798 -61.9827 -13.0591C-60.5382 -14.2384 -58.6843 -14.7956 -56.829 -14.608ZM-0.864223 -8.95035C0.991124 -8.76279 2.69597 -7.84587 3.87527 -6.40132C5.05457 -4.95676 5.61173 -3.10289 5.42416 -1.24755C5.2366 0.607799 4.31968 2.31264 2.87512 3.49194C1.43057 4.67124 -0.423294 5.2284 -2.27864 5.04084C-4.13399 4.85327 -5.83883 3.93635 -7.01813 2.4918C-8.19743 1.04724 -8.75459 -0.80662 -8.56703 -2.66197C-8.37946 -4.51731 -7.46254 -6.22216 -6.01799 -7.40146C-4.57343 -8.58076 -2.71957 -9.13791 -0.864223 -8.95035Z" fill="#537FE7"/>
<path d="M236.584 100.631C234.005 126.136 194.102 142.957 192.405 143.647C191.958 143.832 191.471 143.904 190.989 143.855C190.507 143.806 190.045 143.639 189.643 143.367C188.119 142.352 152.39 117.885 154.968 92.38C155.58 86.3915 158.543 80.8904 163.206 77.0836C167.869 73.2767 173.852 71.475 179.842 72.0737C187.366 72.8344 193.626 76.7358 197.18 82.6198C201.839 77.566 208.753 74.9965 216.277 75.7571C222.266 76.3693 227.767 79.332 231.574 83.9951C235.381 88.6582 237.182 94.6409 236.584 100.631Z" fill="#537FE7"/>
<path d="M82.7829 95.7124C84.9205 95.9285 86.828 95.3518 88.5055 93.9823C90.183 92.6129 91.1284 90.8605 91.3416 88.7253C91.5577 86.5878 90.981 84.6802 89.6115 83.0027C88.2421 81.3252 86.4897 80.3799 84.3545 80.1666C82.217 79.9505 80.3095 80.5272 78.632 81.8967C76.9545 83.2662 76.0091 85.0185 75.7959 87.1537C75.5798 89.2913 76.1565 91.1988 77.5259 92.8763C78.8954 94.5538 80.6477 95.4992 82.7829 95.7124ZM79.0013 133.119C78.4831 133.067 77.9748 132.917 77.4762 132.671C76.9777 132.424 76.5505 132.119 76.1946 131.756C67.5823 122.444 61.3061 113.973 57.3661 106.343C53.4261 98.7124 51.7703 91.7894 52.3986 85.5736C53.3809 75.8575 57.2894 68.4331 64.1242 63.3002C70.9589 58.1674 78.4882 56.0166 86.7119 56.848C94.9382 57.6796 101.886 61.2939 107.555 67.6908C113.224 74.0877 115.567 82.1441 114.582 91.86C113.953 98.0783 110.945 104.531 105.558 111.218C100.17 117.906 92.3257 124.948 82.0242 132.345C81.6028 132.63 81.1232 132.843 80.5854 132.985C80.0475 133.127 79.5195 133.172 79.0013 133.119Z" fill="#537FE7"/>
<g clip-path="url(#clip0_522_1209)">
<path d="M-78.7504 62.4215C-83.9272 61.8981 -88.4975 65.6292 -89.0208 70.806L-92.3211 103.452L-82.9937 104.395C-83.3688 108.106 -82.2545 111.813 -79.8959 114.703C-77.5373 117.592 -74.1276 119.426 -70.4169 119.801C-66.7062 120.176 -62.9985 119.061 -60.1094 116.703C-57.2203 114.344 -55.3864 110.935 -55.0113 107.224L-27.0289 110.053C-27.4041 113.763 -26.2898 117.471 -23.9312 120.36C-21.5725 123.249 -18.1629 125.083 -14.4522 125.458C-10.7415 125.833 -7.03373 124.719 -4.14462 122.361C-1.25551 120.002 0.57832 116.592 0.953447 112.882L10.2809 113.824L11.6953 99.8333C12.2187 94.6566 8.48755 90.0862 3.31081 89.5629L-6.01665 88.6199L-5.0737 79.2925C-4.55037 74.1157 -8.28147 69.5454 -13.4582 69.0221L-78.7504 62.4215ZM-30.4885 74.3675L-11.8336 76.2534L-13.0122 87.9127L-31.6672 86.0268L-30.4885 74.3675ZM-81.7895 69.1813L-63.1346 71.0672L-64.3133 82.7265L-82.9682 80.8406L-81.7895 69.1813ZM-56.139 71.7744L-37.4841 73.6603L-38.6628 85.3196L-57.3177 83.4337L-56.139 71.7744ZM-68.2953 98.8138C-66.4399 99.0014 -64.7351 99.9183 -63.5558 101.363C-62.3765 102.807 -61.8193 104.661 -62.0069 106.517C-62.1945 108.372 -63.1114 110.077 -64.5559 111.256C-66.0005 112.435 -67.8544 112.993 -69.7097 112.805C-71.565 112.617 -73.2699 111.701 -74.4492 110.256C-75.6285 108.811 -76.1856 106.958 -75.9981 105.102C-75.8105 103.247 -74.8936 101.542 -73.4491 100.363C-72.0045 99.1834 -70.1506 98.6263 -68.2953 98.8138ZM-12.3305 104.472C-10.4752 104.659 -8.77034 105.576 -7.59104 107.021C-6.41174 108.465 -5.85458 110.319 -6.04215 112.174C-6.22971 114.03 -7.14663 115.735 -8.59118 116.914C-10.0357 118.093 -11.8896 118.65 -13.7449 118.463C-15.6003 118.275 -17.3051 117.358 -18.4844 115.914C-19.6637 114.469 -20.2209 112.615 -20.0333 110.76C-19.8458 108.905 -18.9289 107.2 -17.4843 106.02C-16.0397 104.841 -14.1859 104.284 -12.3305 104.472Z" fill="#537FE7"/>
</g>
<path d="M225.922 206.093C223.344 231.598 183.44 248.419 181.744 249.109C181.296 249.294 180.81 249.366 180.328 249.317C179.846 249.269 179.383 249.101 178.982 248.83C177.458 247.814 141.728 223.347 144.307 197.842C144.919 191.854 147.881 186.353 152.545 182.546C157.208 178.739 163.19 176.937 169.18 177.536C176.704 178.297 182.965 182.198 186.518 188.082C191.177 183.028 198.092 180.459 205.616 181.22C211.604 181.832 217.105 184.794 220.912 189.457C224.719 194.121 226.521 200.103 225.922 206.093Z" fill="#537FE7"/>
<path d="M72.1213 201.175C74.2589 201.391 76.1664 200.814 77.8439 199.445C79.5214 198.075 80.4668 196.323 80.68 194.188C80.8961 192.05 80.3194 190.143 78.9499 188.465C77.5805 186.788 75.8281 185.842 73.6929 185.629C71.5554 185.413 69.6478 185.99 67.9703 187.359C66.2928 188.729 65.3475 190.481 65.1342 192.616C64.9181 194.754 65.4948 196.661 66.8643 198.339C68.2338 200.016 69.9861 200.962 72.1213 201.175ZM68.3397 238.582C67.8215 238.529 67.3132 238.38 66.8146 238.133C66.3161 237.886 65.8888 237.582 65.5329 237.218C56.9207 227.906 50.6445 219.435 46.7045 211.805C42.7645 204.175 41.1086 197.252 41.737 191.036C42.7192 181.32 46.6278 173.895 53.4625 168.763C60.2973 163.63 67.8266 161.479 76.0503 162.31C84.2766 163.142 91.2243 166.756 96.8935 173.153C102.563 179.55 104.905 187.607 103.92 197.322C103.291 203.541 100.283 209.993 94.896 216.681C89.5085 223.368 81.6641 230.41 71.3626 237.808C70.9412 238.092 70.4616 238.306 69.9238 238.447C69.3859 238.589 68.8579 238.634 68.3397 238.582Z" fill="#537FE7"/>
<path d="M-89.412 167.884C-94.5888 167.361 -99.1591 171.092 -99.6824 176.268L-102.983 208.914L-93.6553 209.857C-94.0304 213.568 -92.9161 217.276 -90.5575 220.165C-88.1989 223.054 -84.7892 224.888 -81.0785 225.263C-77.3678 225.638 -73.6601 224.524 -70.771 222.165C-67.8819 219.807 -66.0481 216.397 -65.6729 212.686L-37.6905 215.515C-38.0657 219.226 -36.9514 222.934 -34.5928 225.823C-32.2342 228.712 -28.8245 230.546 -25.1138 230.921C-21.4031 231.296 -17.6954 230.182 -14.8062 227.823C-11.9171 225.464 -10.0833 222.055 -9.70817 218.344L-0.380716 219.287L1.0337 205.296C1.55704 200.119 -2.17407 195.549 -7.35081 195.025L-16.6783 194.082L-15.7353 184.755C-15.212 179.578 -18.9431 175.008 -24.1198 174.484L-89.412 167.884ZM-41.1501 179.83L-22.4952 181.716L-23.6739 193.375L-42.3288 191.489L-41.1501 179.83ZM-92.4511 174.644L-73.7962 176.53L-74.9749 188.189L-93.6298 186.303L-92.4511 174.644ZM-66.8006 177.237L-48.1457 179.123L-49.3244 190.782L-67.9793 188.896L-66.8006 177.237ZM-78.9569 204.276C-77.1016 204.464 -75.3967 205.381 -74.2174 206.825C-73.0381 208.27 -72.481 210.124 -72.6685 211.979C-72.8561 213.834 -73.773 215.539 -75.2176 216.719C-76.6621 217.898 -78.516 218.455 -80.3713 218.267C-82.2267 218.08 -83.9315 217.163 -85.1108 215.718C-86.2901 214.274 -86.8473 212.42 -86.6597 210.565C-86.4721 208.709 -85.5552 207.004 -84.1107 205.825C-82.6661 204.646 -80.8122 204.089 -78.9569 204.276ZM-22.9922 209.934C-21.1368 210.121 -19.432 211.038 -18.2527 212.483C-17.0734 213.928 -16.5162 215.781 -16.7038 217.637C-16.8913 219.492 -17.8082 221.197 -19.2528 222.376C-20.6974 223.556 -22.5512 224.113 -24.4066 223.925C-26.2619 223.738 -27.9668 222.821 -29.1461 221.376C-30.3254 219.932 -30.8825 218.078 -30.695 216.222C-30.5074 214.367 -29.5905 212.662 -28.1459 211.483C-26.7014 210.304 -24.8475 209.746 -22.9922 209.934Z" fill="#537FE7"/>
<path d="M202.99 432.937C200.411 458.442 160.508 475.263 158.811 475.953C158.364 476.138 157.877 476.21 157.395 476.161C156.913 476.112 156.451 475.945 156.049 475.674C154.525 474.658 118.796 450.191 121.374 424.686C121.986 418.698 124.949 413.197 129.612 409.39C134.275 405.583 140.258 403.781 146.248 404.38C153.772 405.141 160.032 409.042 163.586 414.926C168.245 409.872 175.159 407.303 182.683 408.063C188.672 408.675 194.173 411.638 197.98 416.301C201.787 420.964 203.588 426.947 202.99 432.937Z" fill="#537FE7"/>
<path d="M49.189 428.019C51.3265 428.235 53.234 427.658 54.9115 426.288C56.589 424.919 57.5344 423.167 57.7476 421.031C57.9637 418.894 57.387 416.986 56.0176 415.309C54.6481 413.631 52.8957 412.686 50.7605 412.473C48.623 412.257 46.7155 412.833 45.038 414.203C43.3605 415.572 42.4151 417.325 42.2019 419.46C41.9858 421.597 42.5625 423.505 43.9319 425.182C45.3014 426.86 47.0537 427.805 49.189 428.019ZM45.4073 465.426C44.8892 465.373 44.3808 465.224 43.8822 464.977C43.3837 464.73 42.9565 464.425 42.6006 464.062C33.9883 454.75 27.7121 446.279 23.7721 438.649C19.8321 431.019 18.1763 424.096 18.8046 417.88C19.7869 408.164 23.6954 400.739 30.5302 395.606C37.3649 390.474 44.8942 388.323 53.1179 389.154C61.3442 389.986 68.2919 393.6 73.9611 399.997C79.6303 406.394 81.9725 414.45 80.9877 424.166C80.3591 430.384 77.351 436.837 71.9636 443.525C66.5761 450.212 58.7317 457.254 48.4302 464.651C48.0088 464.936 47.5292 465.149 46.9914 465.291C46.4536 465.433 45.9255 465.478 45.4073 465.426Z" fill="#537FE7"/>
<path d="M191.523 546.359C188.945 571.864 149.042 588.685 147.345 589.375C146.898 589.56 146.411 589.632 145.929 589.583C145.447 589.534 144.985 589.367 144.583 589.095C143.059 588.08 107.33 563.613 109.908 538.108C110.52 532.12 113.483 526.618 118.146 522.812C122.809 519.005 128.792 517.203 134.782 517.802C142.306 518.562 148.566 522.464 152.12 528.348C156.779 523.294 163.693 520.725 171.217 521.485C177.206 522.097 182.707 525.06 186.514 529.723C190.32 534.386 192.122 540.369 191.523 546.359Z" fill="#537FE7"/>
<path d="M37.7226 541.44C39.8602 541.657 41.7677 541.08 43.4452 539.71C45.1227 538.341 46.0681 536.589 46.2813 534.453C46.4974 532.316 45.9207 530.408 44.5512 528.731C43.1818 527.053 41.4294 526.108 39.2942 525.895C37.1567 525.679 35.2492 526.255 33.5717 527.625C31.8942 528.994 30.9488 530.747 30.7356 532.882C30.5195 535.019 31.0961 536.927 32.4656 538.604C33.8351 540.282 35.5874 541.227 37.7226 541.44ZM33.941 578.847C33.4228 578.795 32.9145 578.645 32.4159 578.399C31.9174 578.152 31.4902 577.847 31.1343 577.484C22.522 568.172 16.2458 559.701 12.3058 552.071C8.36578 544.44 6.70996 537.517 7.33833 531.302C8.32056 521.586 12.2291 514.161 19.0639 509.028C25.8986 503.895 33.4279 501.745 41.6516 502.576C49.8779 503.408 56.8256 507.022 62.4948 513.419C68.164 519.816 70.5062 527.872 69.5214 537.588C68.8927 543.806 65.8847 550.259 60.4973 556.946C55.1098 563.634 47.2654 570.676 36.9639 578.073C36.5425 578.358 36.0629 578.571 35.5251 578.713C34.9872 578.855 34.4592 578.9 33.941 578.847Z" fill="#537FE7"/>
<path d="M214.456 319.515C211.877 345.02 171.974 361.841 170.278 362.531C169.83 362.716 169.343 362.788 168.861 362.739C168.379 362.69 167.917 362.523 167.516 362.252C165.991 361.236 130.262 336.769 132.841 311.264C133.453 305.276 136.415 299.775 141.079 295.968C145.742 292.161 151.724 290.359 157.714 290.958C165.238 291.719 171.499 295.62 175.052 301.504C179.711 296.45 186.626 293.881 194.15 294.641C200.138 295.254 205.639 298.216 209.446 302.879C213.253 307.542 215.055 313.525 214.456 319.515Z" fill="#537FE7"/>
<path d="M60.655 314.597C62.7926 314.813 64.7001 314.236 66.3776 312.867C68.0551 311.497 69.0004 309.745 69.2137 307.61C69.4298 305.472 68.8531 303.565 67.4836 301.887C66.1141 300.21 64.3618 299.264 62.2266 299.051C60.0891 298.835 58.1815 299.412 56.504 300.781C54.8265 302.15 53.8812 303.903 53.6679 306.038C53.4518 308.176 54.0285 310.083 55.398 311.761C56.7675 313.438 58.5198 314.383 60.655 314.597ZM56.8734 352.004C56.3552 351.951 55.8469 351.802 55.3483 351.555C54.8498 351.308 54.4225 351.003 54.0666 350.64C45.4543 341.328 39.1782 332.857 35.2382 325.227C31.2982 317.597 29.6423 310.674 30.2707 304.458C31.2529 294.742 35.1614 287.317 41.9962 282.184C48.831 277.052 56.3602 274.901 64.584 275.732C72.8103 276.564 79.758 280.178 85.4272 286.575C91.0964 292.972 93.4386 301.028 92.4538 310.744C91.8251 316.963 88.8171 323.415 83.4296 330.103C78.0422 336.79 70.1978 343.832 59.8963 351.23C59.4749 351.514 58.9953 351.727 58.4575 351.869C57.9196 352.011 57.3916 352.056 56.8734 352.004Z" fill="#537FE7"/>
<path d="M180.862 651.821C178.283 677.326 138.38 694.147 136.684 694.837C136.236 695.022 135.749 695.094 135.267 695.045C134.785 694.997 134.323 694.829 133.922 694.558C132.397 693.542 96.6682 669.075 99.2466 643.57C99.8588 637.582 102.821 632.081 107.485 628.274C112.148 624.467 118.13 622.665 124.12 623.264C131.644 624.025 137.905 627.926 141.458 633.81C146.117 628.756 153.032 626.187 160.556 626.948C166.544 627.56 172.045 630.522 175.852 635.186C179.659 639.849 181.461 645.831 180.862 651.821Z" fill="#537FE7"/>
<path d="M27.061 646.903C29.1986 647.119 31.1061 646.542 32.7836 645.173C34.4611 643.803 35.4065 642.051 35.6197 639.916C35.8358 637.778 35.2591 635.871 33.8896 634.193C32.5202 632.516 30.7678 631.57 28.6326 631.357C26.4951 631.141 24.5875 631.718 22.91 633.087C21.2325 634.457 20.2872 636.209 20.0739 638.344C19.8578 640.482 20.4345 642.389 21.804 644.067C23.1735 645.744 24.9258 646.69 27.061 646.903ZM23.2794 684.31C22.7612 684.257 22.2529 684.108 21.7543 683.861C21.2558 683.614 20.8285 683.31 20.4726 682.946C11.8603 673.634 5.5842 665.163 1.64418 657.533C-2.29584 649.903 -3.95166 642.98 -3.32329 636.764C-2.34106 627.048 1.56745 619.623 8.40223 614.491C15.237 609.358 22.7663 607.207 30.99 608.038C39.2163 608.87 46.164 612.484 51.8332 618.881C57.5024 625.278 59.8446 633.335 58.8598 643.05C58.2311 649.269 55.2231 655.722 49.8357 662.409C44.4482 669.096 36.6038 676.139 26.3023 683.536C25.8809 683.82 25.4013 684.034 24.8635 684.175C24.3256 684.317 23.7976 684.362 23.2794 684.31Z" fill="#537FE7"/>
<g clip-path="url(#clip1_522_1209)">
<path d="M398.343 -3.92864C393.166 -4.45197 388.596 -0.720863 388.072 4.45588L384.772 37.102L394.099 38.0449C393.724 41.7556 394.839 45.4634 397.197 48.3525C399.556 51.2416 402.965 53.0754 406.676 53.4505C410.387 53.8257 414.095 52.7114 416.984 50.3528C419.873 47.9942 421.707 44.5845 422.082 40.8738L450.064 43.7026C449.689 47.4133 450.803 51.121 453.162 54.0101C455.52 56.8993 458.93 58.7331 462.641 59.1082C466.352 59.4833 470.059 58.369 472.948 56.0104C475.838 53.6518 477.671 50.2421 478.046 46.5314L487.374 47.4744L488.788 33.4832C489.312 28.3065 485.581 23.7361 480.404 23.2128L471.076 22.2698L472.019 12.9424C472.543 7.76565 468.812 3.19532 463.635 2.67198L398.343 -3.92864ZM446.605 8.01742L465.259 9.90331L464.081 21.5626L445.426 19.6767L446.605 8.01742ZM395.304 2.83122L413.958 4.71711L412.78 16.3764L394.125 14.4905L395.304 2.83122ZM420.954 5.42432L439.609 7.31021L438.43 18.9695L419.775 17.0836L420.954 5.42432ZM408.798 32.4638C410.653 32.6513 412.358 33.5682 413.537 35.0128C414.717 36.4573 415.274 38.3112 415.086 40.1666C414.899 42.0219 413.982 43.7267 412.537 44.906C411.093 46.0853 409.239 46.6425 407.383 46.4549C405.528 46.2674 403.823 45.3505 402.644 43.9059C401.465 42.4613 400.907 40.6075 401.095 38.7521C401.282 36.8968 402.199 35.1919 403.644 34.0126C405.089 32.8333 406.942 32.2762 408.798 32.4638ZM464.762 38.1214C466.618 38.309 468.323 39.2259 469.502 40.6705C470.681 42.115 471.238 43.9689 471.051 45.8242C470.863 47.6796 469.946 49.3844 468.502 50.5637C467.057 51.743 465.203 52.3002 463.348 52.1126C461.493 51.9251 459.788 51.0081 458.609 49.5636C457.429 48.119 456.872 46.2652 457.06 44.4098C457.247 42.5545 458.164 40.8496 459.609 39.6703C461.053 38.491 462.907 37.9339 464.762 38.1214Z" fill="#537FE7"/>
</g>
<path d="M358.392 18.4244L354.505 18.0315C356.026 2.99095 345.091 -10.4034 330.05 -11.9239C308.432 -14.1093 318.002 -13.1418 314.505 -13.4954C299.464 -15.0159 286.07 -4.08114 284.549 10.9594L280.663 10.5665C278.525 10.3504 276.6 11.9225 276.383 14.06L275.205 25.7194C274.989 27.8569 276.561 29.7826 278.698 29.9987L282.585 30.3916L282.192 34.278C281.983 36.3395 282.603 38.3994 283.913 40.0044C285.223 41.6095 287.117 42.6283 289.179 42.8367L343.589 48.3372C347.903 48.7733 351.712 45.6641 352.148 41.3501L352.541 37.4637L356.427 37.8566C358.565 38.0727 360.49 36.5006 360.706 34.363L361.885 22.7037C362.101 20.5662 360.529 18.6405 358.392 18.4244ZM309.956 23.3432C308.786 19.7699 305.648 17.0185 301.645 16.6138C297.642 16.2092 294.017 18.2769 292.156 21.5438C291.773 20.2879 291.591 18.974 291.733 17.5748C291.993 14.998 293.267 12.6301 295.273 10.9922C297.279 9.35429 299.854 8.58046 302.431 8.84097C305.008 9.10147 307.376 10.375 309.014 12.3813C310.652 14.3876 311.425 16.9624 311.165 19.5393C311.024 20.9384 310.583 22.1895 309.956 23.3432ZM344.934 26.8793C343.764 23.306 340.51 20.5428 336.623 20.1499C332.737 19.757 328.995 21.813 327.134 25.0798C326.751 23.824 326.569 22.51 326.711 21.1109C326.971 18.534 328.245 16.1662 330.251 14.5283C332.257 12.8903 334.832 12.1165 337.409 12.377C339.986 12.6375 342.354 13.911 343.992 15.9173C345.63 17.9237 346.403 20.4985 346.143 23.0754C346.002 24.4745 345.561 25.7256 344.934 26.8793Z" fill="#537FE7"/>
<path d="M348.383 0.91472L349.746 -12.5633C350.997 -13.1262 352.077 -14.0085 352.879 -15.1215C353.681 -16.2346 354.175 -17.5391 354.313 -18.9039C354.451 -20.2687 354.226 -21.6456 353.663 -22.8963C353.1 -24.147 352.217 -25.2273 351.104 -26.0286C349.99 -26.8299 348.685 -27.324 347.321 -27.4611C345.956 -27.5981 344.579 -27.3735 343.328 -26.8096C342.078 -26.2457 340.998 -25.3626 340.197 -24.2489C339.396 -23.1353 338.903 -21.8304 338.766 -20.4655C338.475 -17.5895 339.775 -14.9062 341.973 -13.349L340.61 0.128932L348.383 0.91472Z" fill="#537FE7"/>
<path d="M386.876 109.493C381.7 108.97 377.129 112.701 376.606 117.878L373.306 150.524L382.633 151.467C382.258 155.177 383.372 158.885 385.731 161.774C388.089 164.663 391.499 166.497 395.21 166.872C398.92 167.248 402.628 166.133 405.517 163.775C408.406 161.416 410.24 158.006 410.615 154.296L438.598 157.124C438.223 160.835 439.337 164.543 441.696 167.432C444.054 170.321 447.464 172.155 451.175 172.53C454.885 172.905 458.593 171.791 461.482 169.432C464.371 167.074 466.205 163.664 466.58 159.953L475.908 160.896L477.322 146.905C477.845 141.728 474.114 137.158 468.938 136.635L459.61 135.692L460.553 126.364C461.076 121.188 457.345 116.617 452.168 116.094L386.876 109.493ZM435.138 121.439L453.793 123.325L452.614 134.985L433.96 133.099L435.138 121.439ZM383.837 116.253L402.492 118.139L401.313 129.798L382.659 127.912L383.837 116.253ZM409.488 118.846L428.143 120.732L426.964 132.391L408.309 130.506L409.488 118.846ZM397.331 145.886C399.187 146.073 400.892 146.99 402.071 148.435C403.25 149.879 403.807 151.733 403.62 153.588C403.432 155.444 402.515 157.149 401.071 158.328C399.626 159.507 397.772 160.064 395.917 159.877C394.062 159.689 392.357 158.772 391.178 157.328C389.998 155.883 389.441 154.029 389.629 152.174C389.816 150.319 390.733 148.614 392.178 147.435C393.622 146.255 395.476 145.698 397.331 145.886ZM453.296 151.543C455.152 151.731 456.856 152.648 458.036 154.092C459.215 155.537 459.772 157.391 459.585 159.246C459.397 161.101 458.48 162.806 457.036 163.986C455.591 165.165 453.737 165.722 451.882 165.534C450.026 165.347 448.322 164.43 447.142 162.985C445.963 161.541 445.406 159.687 445.593 157.832C445.781 155.976 446.698 154.271 448.142 153.092C449.587 151.913 451.441 151.356 453.296 151.543Z" fill="#537FE7"/>
<path d="M346.925 131.846L343.039 131.453C344.559 116.413 333.625 103.019 318.584 101.498C296.966 99.3125 306.536 100.28 303.038 99.9264C287.998 98.4059 274.603 109.341 273.083 124.381L269.196 123.988C267.059 123.772 265.133 125.344 264.917 127.482L263.738 139.141C263.522 141.279 265.094 143.204 267.232 143.421L271.118 143.813L270.726 147.7C270.517 149.761 271.136 151.821 272.447 153.426C273.757 155.031 275.651 156.05 277.713 156.259L332.123 161.759C336.437 162.195 340.245 159.086 340.681 154.772L341.074 150.886L344.961 151.278C347.098 151.495 349.024 149.922 349.24 147.785L350.419 136.126C350.635 133.988 349.063 132.062 346.925 131.846ZM298.49 136.765C297.32 133.192 294.182 130.44 290.179 130.036C286.176 129.631 282.551 131.699 280.69 134.966C280.306 133.71 280.125 132.396 280.266 130.997C280.527 128.42 281.8 126.052 283.807 124.414C285.813 122.776 288.388 122.002 290.965 122.263C293.542 122.523 295.91 123.797 297.547 125.803C299.185 127.809 299.959 130.384 299.699 132.961C299.557 134.36 299.117 135.611 298.49 136.765ZM333.468 140.301C332.298 136.728 329.043 133.965 325.157 133.572C321.271 133.179 317.529 135.235 315.668 138.502C315.284 137.246 315.103 135.932 315.244 134.533C315.505 131.956 316.778 129.588 318.785 127.95C320.791 126.312 323.366 125.538 325.943 125.799C328.52 126.059 330.887 127.333 332.525 129.339C334.163 131.346 334.937 133.92 334.677 136.497C334.535 137.896 334.095 139.147 333.468 140.301Z" fill="#537FE7"/>
<path d="M336.917 114.337L338.279 100.859C339.53 100.296 340.611 99.4134 341.413 98.3003C342.214 97.1873 342.709 95.8828 342.847 94.518C342.984 93.1532 342.76 91.7762 342.197 90.5255C341.633 89.2749 340.751 88.1945 339.637 87.3932C338.524 86.592 337.219 86.0979 335.854 85.9608C334.489 85.8237 333.113 86.0484 331.862 86.6123C330.612 87.1761 329.532 88.0593 328.731 89.1729C327.93 90.2866 327.436 91.5915 327.3 92.9564C327.009 95.8324 328.308 98.5157 330.507 100.073L329.144 113.551L336.917 114.337Z" fill="#537FE7"/>
<path d="M292.611 109.858L293.974 96.3796C295.225 95.8167 296.306 94.9344 297.107 93.8213C297.909 92.7083 298.404 91.4038 298.541 90.039C298.679 88.6742 298.455 87.2972 297.891 86.0465C297.328 84.7958 296.445 83.7155 295.332 82.9142C294.218 82.1129 292.914 81.6189 291.549 81.4818C290.184 81.3447 288.807 81.5694 287.557 82.1333C286.306 82.6971 285.226 83.5803 284.425 84.6939C283.625 85.8076 283.131 87.1125 282.994 88.4774C282.704 91.3534 284.003 94.0367 286.201 95.5938L284.839 109.072L292.611 109.858Z" fill="#537FE7"/>
<g clip-path="url(#clip2_522_1209)">
<path d="M376.215 214.956C371.038 214.432 366.468 218.163 365.945 223.34L362.644 255.986L371.972 256.929C371.597 260.64 372.711 264.348 375.069 267.237C377.428 270.126 380.838 271.96 384.548 272.335C388.259 272.71 391.967 271.596 394.856 269.237C397.745 266.878 399.579 263.469 399.954 259.758L427.936 262.587C427.561 266.298 428.676 270.005 431.034 272.894C433.393 275.784 436.802 277.617 440.513 277.992C444.224 278.368 447.932 277.253 450.821 274.895C453.71 272.536 455.544 269.126 455.919 265.416L465.246 266.359L466.661 252.367C467.184 247.191 463.453 242.62 458.276 242.097L448.949 241.154L449.892 231.827C450.415 226.65 446.684 222.08 441.507 221.556L376.215 214.956ZM424.477 226.902L443.132 228.788L441.953 240.447L423.298 238.561L424.477 226.902ZM373.176 221.715L391.831 223.601L390.652 235.261L371.997 233.375L373.176 221.715ZM398.826 224.309L417.481 226.194L416.303 237.854L397.648 235.968L398.826 224.309ZM386.67 251.348C388.525 251.536 390.23 252.453 391.41 253.897C392.589 255.342 393.146 257.195 392.958 259.051C392.771 260.906 391.854 262.611 390.409 263.79C388.965 264.97 387.111 265.527 385.256 265.339C383.4 265.152 381.695 264.235 380.516 262.79C379.337 261.346 378.78 259.492 378.967 257.636C379.155 255.781 380.072 254.076 381.516 252.897C382.961 251.718 384.815 251.16 386.67 251.348ZM442.635 257.006C444.49 257.193 446.195 258.11 447.374 259.555C448.554 260.999 449.111 262.853 448.923 264.709C448.736 266.564 447.819 268.269 446.374 269.448C444.93 270.627 443.076 271.184 441.22 270.997C439.365 270.809 437.66 269.892 436.481 268.448C435.302 267.003 434.744 265.149 434.932 263.294C435.12 261.439 436.036 259.734 437.481 258.555C438.926 257.375 440.779 256.818 442.635 257.006Z" fill="#537FE7"/>
</g>
<path d="M336.264 237.309L332.377 236.916C333.898 221.875 322.963 208.481 307.923 206.96C286.304 204.775 295.875 205.742 292.377 205.389C277.336 203.868 263.942 214.803 262.422 229.844L258.535 229.451C256.398 229.235 254.472 230.807 254.256 232.944L253.077 244.604C252.861 246.741 254.433 248.667 256.571 248.883L260.457 249.276L260.064 253.162C259.856 255.224 260.475 257.284 261.785 258.889C263.096 260.494 264.99 261.513 267.051 261.721L321.461 267.221C325.775 267.658 329.584 264.548 330.02 260.234L330.413 256.348L334.299 256.741C336.437 256.957 338.363 255.385 338.579 253.247L339.757 241.588C339.974 239.45 338.401 237.525 336.264 237.309ZM287.828 242.228C286.658 238.654 283.521 235.903 279.518 235.498C275.515 235.093 271.89 237.161 270.028 240.428C269.645 239.172 269.464 237.858 269.605 236.459C269.866 233.882 271.139 231.514 273.145 229.876C275.152 228.239 277.727 227.465 280.303 227.725C282.88 227.986 285.248 229.259 286.886 231.266C288.524 233.272 289.298 235.847 289.037 238.424C288.896 239.823 288.455 241.074 287.828 242.228ZM322.806 245.764C321.636 242.19 318.382 239.427 314.496 239.034C310.609 238.641 306.868 240.697 305.006 243.964C304.623 242.708 304.442 241.394 304.583 239.995C304.844 237.418 306.117 235.05 308.123 233.413C310.13 231.775 312.705 231.001 315.281 231.261C317.858 231.522 320.226 232.795 321.864 234.802C323.502 236.808 324.276 239.383 324.015 241.96C323.874 243.359 323.433 244.61 322.806 245.764Z" fill="#537FE7"/>
<path d="M326.256 219.799L327.618 206.321C328.869 205.758 329.95 204.876 330.751 203.763C331.553 202.65 332.048 201.345 332.185 199.98C332.323 198.616 332.099 197.239 331.535 195.988C330.972 194.737 330.089 193.657 328.976 192.856C327.862 192.054 326.558 191.56 325.193 191.423C323.828 191.286 322.451 191.511 321.201 192.075C319.95 192.639 318.87 193.522 318.069 194.635C317.269 195.749 316.775 197.054 316.638 198.419C316.348 201.295 317.647 203.978 319.845 205.535L318.483 219.013L326.256 219.799Z" fill="#537FE7"/>
<path d="M281.95 215.32L283.313 201.842C284.564 201.279 285.644 200.397 286.446 199.284C287.248 198.171 287.742 196.866 287.88 195.501C288.017 194.137 287.793 192.76 287.23 191.509C286.667 190.258 285.784 189.178 284.67 188.377C283.557 187.575 282.252 187.081 280.888 186.944C279.523 186.807 278.146 187.032 276.895 187.596C275.645 188.16 274.565 189.043 273.764 190.156C272.963 191.27 272.47 192.575 272.333 193.94C272.042 196.816 273.341 199.499 275.54 201.056L274.177 214.534L281.95 215.32Z" fill="#537FE7"/>
<g clip-path="url(#clip3_522_1209)">
<path d="M353.282 441.799C348.106 441.276 343.535 445.007 343.012 450.184L339.712 482.83L349.039 483.773C348.664 487.484 349.778 491.191 352.137 494.08C354.495 496.97 357.905 498.803 361.616 499.179C365.326 499.554 369.034 498.439 371.923 496.081C374.812 493.722 376.646 490.312 377.021 486.602L405.004 489.431C404.629 493.141 405.743 496.849 408.102 499.738C410.46 502.627 413.87 504.461 417.581 504.836C421.291 505.211 424.999 504.097 427.888 501.738C430.777 499.38 432.611 495.97 432.986 492.259L442.314 493.202L443.728 479.211C444.251 474.034 440.52 469.464 435.344 468.941L426.016 467.998L426.959 458.67C427.482 453.494 423.751 448.923 418.575 448.4L353.282 441.799ZM401.544 453.745L420.199 455.631L419.02 467.291L400.366 465.405L401.544 453.745ZM350.243 448.559L368.898 450.445L367.719 462.104L349.065 460.219L350.243 448.559ZM375.894 451.152L394.549 453.038L393.37 464.698L374.715 462.812L375.894 451.152ZM363.737 478.192C365.593 478.379 367.298 479.296 368.477 480.741C369.656 482.185 370.213 484.039 370.026 485.895C369.838 487.75 368.921 489.455 367.477 490.634C366.032 491.813 364.178 492.371 362.323 492.183C360.468 491.995 358.763 491.078 357.584 489.634C356.404 488.189 355.847 486.336 356.035 484.48C356.222 482.625 357.139 480.92 358.584 479.741C360.028 478.561 361.882 478.004 363.737 478.192ZM419.702 483.849C421.558 484.037 423.262 484.954 424.442 486.398C425.621 487.843 426.178 489.697 425.991 491.552C425.803 493.408 424.886 495.112 423.442 496.292C421.997 497.471 420.143 498.028 418.288 497.841C416.432 497.653 414.728 496.736 413.548 495.292C412.369 493.847 411.812 491.993 411.999 490.138C412.187 488.282 413.104 486.578 414.548 485.398C415.993 484.219 417.847 483.662 419.702 483.849Z" fill="#537FE7"/>
</g>
<path d="M313.331 464.152L309.445 463.76C310.965 448.719 300.031 435.325 284.99 433.804C263.372 431.619 272.942 432.586 269.444 432.233C254.404 430.712 241.009 441.647 239.489 456.687L235.602 456.295C233.465 456.078 231.539 457.651 231.323 459.788L230.144 471.447C229.928 473.585 231.5 475.511 233.638 475.727L237.524 476.12L237.132 480.006C236.923 482.068 237.542 484.127 238.853 485.732C240.163 487.338 242.057 488.356 244.119 488.565L298.529 494.065C302.843 494.501 306.651 491.392 307.088 487.078L307.48 483.192L311.367 483.585C313.504 483.801 315.43 482.229 315.646 480.091L316.825 468.432C317.041 466.294 315.469 464.368 313.331 464.152ZM264.896 469.071C263.726 465.498 260.588 462.747 256.585 462.342C252.582 461.937 248.957 464.005 247.096 467.272C246.712 466.016 246.531 464.702 246.672 463.303C246.933 460.726 248.206 458.358 250.213 456.72C252.219 455.082 254.794 454.308 257.371 454.569C259.948 454.83 262.316 456.103 263.953 458.109C265.591 460.116 266.365 462.69 266.105 465.267C265.963 466.666 265.523 467.918 264.896 469.071ZM299.874 472.607C298.704 469.034 295.449 466.271 291.563 465.878C287.677 465.485 283.935 467.541 282.074 470.808C281.69 469.552 281.509 468.238 281.65 466.839C281.911 464.262 283.184 461.894 285.191 460.256C287.197 458.618 289.772 457.845 292.349 458.105C294.926 458.366 297.293 459.639 298.931 461.645C300.569 463.652 301.343 466.227 301.083 468.803C300.941 470.202 300.501 471.454 299.874 472.607Z" fill="#537FE7"/>
<path d="M303.323 446.643L304.685 433.165C305.936 432.602 307.017 431.72 307.819 430.606C308.62 429.493 309.115 428.189 309.253 426.824C309.39 425.459 309.166 424.082 308.603 422.832C308.039 421.581 307.157 420.501 306.043 419.699C304.93 418.898 303.625 418.404 302.26 418.267C300.895 418.13 299.519 418.355 298.268 418.918C297.018 419.482 295.938 420.365 295.137 421.479C294.336 422.593 293.842 423.898 293.706 425.263C293.415 428.139 294.714 430.822 296.913 432.379L295.55 445.857L303.323 446.643Z" fill="#537FE7"/>
<path d="M259.017 442.164L260.38 428.686C261.631 428.123 262.712 427.241 263.513 426.127C264.315 425.014 264.81 423.71 264.947 422.345C265.085 420.98 264.861 419.603 264.297 418.353C263.734 417.102 262.851 416.022 261.738 415.22C260.624 414.419 259.32 413.925 257.955 413.788C256.59 413.651 255.213 413.876 253.963 414.439C252.712 415.003 251.632 415.886 250.831 417C250.031 418.114 249.537 419.419 249.4 420.784C249.11 423.66 250.409 426.343 252.607 427.9L251.245 441.378L259.017 442.164Z" fill="#537FE7"/>
<path d="M341.816 555.221C336.639 554.698 332.069 558.429 331.546 563.606L328.245 596.252L337.573 597.195C337.198 600.906 338.312 604.613 340.671 607.502C343.029 610.391 346.439 612.225 350.149 612.6C353.86 612.976 357.568 611.861 360.457 609.503C363.346 607.144 365.18 603.734 365.555 600.024L393.537 602.853C393.162 606.563 394.277 610.271 396.635 613.16C398.994 616.049 402.404 617.883 406.114 618.258C409.825 618.633 413.533 617.519 416.422 615.16C419.311 612.802 421.145 609.392 421.52 605.681L430.847 606.624L432.262 592.633C432.785 587.456 429.054 582.886 423.877 582.363L414.55 581.42L415.493 572.092C416.016 566.916 412.285 562.345 407.108 561.822L341.816 555.221ZM390.078 567.167L408.733 569.053L407.554 580.713L388.899 578.827L390.078 567.167ZM338.777 561.981L357.432 563.867L356.253 575.526L337.598 573.64L338.777 561.981ZM364.427 564.574L383.082 566.46L381.904 578.119L363.249 576.234L364.427 564.574ZM352.271 591.614C354.126 591.801 355.831 592.718 357.011 594.163C358.19 595.607 358.747 597.461 358.56 599.316C358.372 601.172 357.455 602.877 356.01 604.056C354.566 605.235 352.712 605.792 350.857 605.605C349.001 605.417 347.297 604.5 346.117 603.056C344.938 601.611 344.381 599.757 344.568 597.902C344.756 596.047 345.673 594.342 347.117 593.163C348.562 591.983 350.416 591.426 352.271 591.614ZM408.236 597.271C410.091 597.459 411.796 598.376 412.975 599.82C414.155 601.265 414.712 603.119 414.524 604.974C414.337 606.829 413.42 608.534 411.975 609.714C410.531 610.893 408.677 611.45 406.821 611.263C404.966 611.075 403.261 610.158 402.082 608.713C400.903 607.269 400.346 605.415 400.533 603.56C400.721 601.704 401.638 600 403.082 598.82C404.527 597.641 406.381 597.084 408.236 597.271Z" fill="#537FE7"/>
<path d="M301.865 577.574L297.979 577.181C299.499 562.141 288.564 548.747 273.524 547.226C251.905 545.041 261.476 546.008 257.978 545.654C242.937 544.134 229.543 555.069 228.023 570.109L224.136 569.716C221.999 569.5 220.073 571.072 219.857 573.21L218.678 584.869C218.462 587.007 220.034 588.933 222.172 589.149L226.058 589.541L225.665 593.428C225.457 595.489 226.076 597.549 227.386 599.154C228.697 600.759 230.591 601.778 232.652 601.987L287.063 607.487C291.376 607.923 295.185 604.814 295.621 600.5L296.014 596.614L299.901 597.006C302.038 597.223 303.964 595.65 304.18 593.513L305.359 581.854C305.575 579.716 304.003 577.79 301.865 577.574ZM253.429 582.493C252.259 578.92 249.122 576.168 245.119 575.764C241.116 575.359 237.491 577.427 235.629 580.694C235.246 579.438 235.065 578.124 235.206 576.725C235.467 574.148 236.74 571.78 238.746 570.142C240.753 568.504 243.328 567.73 245.905 567.991C248.481 568.251 250.849 569.525 252.487 571.531C254.125 573.538 254.899 576.112 254.638 578.689C254.497 580.088 254.056 581.339 253.429 582.493ZM288.407 586.029C287.237 582.456 283.983 579.693 280.097 579.3C276.21 578.907 272.469 580.963 270.607 584.23C270.224 582.974 270.043 581.66 270.184 580.261C270.445 577.684 271.718 575.316 273.724 573.678C275.731 572.04 278.306 571.266 280.882 571.527C283.459 571.787 285.827 573.061 287.465 575.067C289.103 577.074 289.877 579.648 289.616 582.225C289.475 583.624 289.034 584.875 288.407 586.029Z" fill="#537FE7"/>
<path d="M291.857 560.065L293.219 546.587C294.47 546.024 295.551 545.141 296.352 544.028C297.154 542.915 297.649 541.611 297.786 540.246C297.924 538.881 297.7 537.504 297.136 536.254C296.573 535.003 295.69 533.923 294.577 533.121C293.464 532.32 292.159 531.826 290.794 531.689C289.429 531.552 288.052 531.776 286.802 532.34C285.551 532.904 284.471 533.787 283.671 534.901C282.87 536.015 282.376 537.32 282.24 538.684C281.949 541.56 283.248 544.244 285.446 545.801L284.084 559.279L291.857 560.065Z" fill="#537FE7"/>
<path d="M247.551 555.586L248.914 542.108C250.165 541.545 251.245 540.662 252.047 539.549C252.849 538.436 253.343 537.132 253.481 535.767C253.618 534.402 253.394 533.025 252.831 531.775C252.268 530.524 251.385 529.444 250.272 528.642C249.158 527.841 247.853 527.347 246.489 527.21C245.124 527.073 243.747 527.297 242.496 527.861C241.246 528.425 240.166 529.308 239.365 530.422C238.564 531.536 238.071 532.841 237.934 534.205C237.643 537.081 238.943 539.765 241.141 541.322L239.778 554.8L247.551 555.586Z" fill="#537FE7"/>
<path d="M364.749 328.378C359.572 327.854 355.002 331.585 354.478 336.762L351.178 369.408L360.505 370.351C360.13 374.062 361.245 377.77 363.603 380.659C365.962 383.548 369.371 385.382 373.082 385.757C376.793 386.132 380.501 385.018 383.39 382.659C386.279 380.3 388.113 376.891 388.488 373.18L416.47 376.009C416.095 379.719 417.209 383.427 419.568 386.316C421.926 389.205 425.336 391.039 429.047 391.414C432.758 391.789 436.465 390.675 439.354 388.317C442.244 385.958 444.077 382.548 444.452 378.838L453.78 379.781L455.194 365.789C455.718 360.613 451.987 356.042 446.81 355.519L437.482 354.576L438.425 345.249C438.949 340.072 435.218 335.501 430.041 334.978L364.749 328.378ZM413.011 340.324L431.665 342.209L430.487 353.869L411.832 351.983L413.011 340.324ZM361.71 335.137L380.364 337.023L379.186 348.683L360.531 346.797L361.71 335.137ZM387.36 337.73L406.015 339.616L404.836 351.276L386.181 349.39L387.36 337.73ZM375.204 364.77C377.059 364.957 378.764 365.874 379.943 367.319C381.123 368.763 381.68 370.617 381.492 372.473C381.305 374.328 380.388 376.033 378.943 377.212C377.499 378.391 375.645 378.949 373.789 378.761C371.934 378.574 370.229 377.657 369.05 376.212C367.871 374.767 367.313 372.914 367.501 371.058C367.689 369.203 368.605 367.498 370.05 366.319C371.495 365.139 373.348 364.582 375.204 364.77ZM431.168 370.428C433.024 370.615 434.729 371.532 435.908 372.977C437.087 374.421 437.644 376.275 437.457 378.13C437.269 379.986 436.352 381.691 434.908 382.87C433.463 384.049 431.609 384.606 429.754 384.419C427.899 384.231 426.194 383.314 425.015 381.87C423.835 380.425 423.278 378.571 423.466 376.716C423.653 374.861 424.57 373.156 426.015 371.976C427.459 370.797 429.313 370.24 431.168 370.428Z" fill="#537FE7"/>
<path d="M324.798 350.731L320.911 350.338C322.432 335.297 311.497 321.903 296.456 320.382C274.838 318.197 284.408 319.164 280.911 318.811C265.87 317.29 252.476 328.225 250.955 343.266L247.069 342.873C244.931 342.657 243.006 344.229 242.789 346.366L241.611 358.026C241.395 360.163 242.967 362.089 245.104 362.305L248.991 362.698L248.598 366.584C248.389 368.646 249.009 370.706 250.319 372.311C251.629 373.916 253.523 374.934 255.585 375.143L309.995 380.643C314.309 381.079 318.118 377.97 318.554 373.656L318.947 369.77L322.833 370.163C324.971 370.379 326.896 368.807 327.112 366.669L328.291 355.01C328.507 352.872 326.935 350.947 324.798 350.731ZM276.362 355.649C275.192 352.076 272.054 349.325 268.051 348.92C264.048 348.515 260.423 350.583 258.562 353.85C258.179 352.594 257.997 351.28 258.139 349.881C258.399 347.304 259.673 344.936 261.679 343.298C263.685 341.66 266.26 340.887 268.837 341.147C271.414 341.408 273.782 342.681 275.42 344.687C277.058 346.694 277.831 349.269 277.571 351.845C277.43 353.245 276.989 354.496 276.362 355.649ZM311.34 359.185C310.17 355.612 306.916 352.849 303.029 352.456C299.143 352.063 295.401 354.119 293.54 357.386C293.157 356.13 292.975 354.816 293.117 353.417C293.377 350.84 294.651 348.472 296.657 346.834C298.663 345.196 301.238 344.423 303.815 344.683C306.392 344.944 308.76 346.217 310.398 348.223C312.036 350.23 312.809 352.805 312.549 355.382C312.408 356.781 311.967 358.032 311.34 359.185Z" fill="#537FE7"/>
<path d="M314.789 333.221L316.152 319.743C317.403 319.18 318.483 318.298 319.285 317.185C320.087 316.072 320.581 314.767 320.719 313.402C320.857 312.037 320.632 310.661 320.069 309.41C319.506 308.159 318.623 307.079 317.51 306.278C316.396 305.476 315.091 304.982 313.727 304.845C312.362 304.708 310.985 304.933 309.734 305.497C308.484 306.06 307.404 306.944 306.603 308.057C305.802 309.171 305.309 310.476 305.172 311.841C304.881 314.717 306.181 317.4 308.379 318.957L307.016 332.435L314.789 333.221Z" fill="#537FE7"/>
<path d="M270.484 328.742L271.846 315.264C273.097 314.701 274.178 313.819 274.98 312.706C275.781 311.593 276.276 310.288 276.413 308.923C276.551 307.558 276.327 306.181 275.764 304.931C275.2 303.68 274.317 302.6 273.204 301.799C272.091 300.997 270.786 300.503 269.421 300.366C268.056 300.229 266.679 300.454 265.429 301.018C264.179 301.581 263.099 302.465 262.298 303.578C261.497 304.692 261.003 305.997 260.867 307.362C260.576 310.238 261.875 312.921 264.073 314.478L262.711 327.956L270.484 328.742Z" fill="#537FE7"/>
<g clip-path="url(#clip4_522_1209)">
<path d="M331.155 660.684C325.978 660.16 321.408 663.891 320.884 669.068L317.584 701.714L326.911 702.657C326.536 706.368 327.651 710.076 330.009 712.965C332.368 715.854 335.777 717.688 339.488 718.063C343.199 718.438 346.907 717.324 349.796 714.965C352.685 712.606 354.519 709.197 354.894 705.486L382.876 708.315C382.501 712.026 383.615 715.733 385.974 718.622C388.332 721.512 391.742 723.345 395.453 723.721C399.164 724.096 402.871 722.981 405.76 720.623C408.65 718.264 410.483 714.854 410.858 711.144L420.186 712.087L421.6 698.096C422.124 692.919 418.393 688.348 413.216 687.825L403.888 686.882L404.831 677.555C405.355 672.378 401.624 667.808 396.447 667.284L331.155 660.684ZM379.417 672.63L398.071 674.516L396.893 686.175L378.238 684.289L379.417 672.63ZM328.116 667.444L346.77 669.329L345.592 680.989L326.937 679.103L328.116 667.444ZM353.766 670.037L372.421 671.923L371.242 683.582L352.587 681.696L353.766 670.037ZM341.61 697.076C343.465 697.264 345.17 698.181 346.349 699.625C347.529 701.07 348.086 702.924 347.898 704.779C347.711 706.634 346.794 708.339 345.349 709.518C343.905 710.698 342.051 711.255 340.195 711.067C338.34 710.88 336.635 709.963 335.456 708.518C334.277 707.074 333.719 705.22 333.907 703.364C334.095 701.509 335.011 699.804 336.456 698.625C337.901 697.446 339.754 696.888 341.61 697.076ZM397.574 702.734C399.43 702.921 401.135 703.838 402.314 705.283C403.493 706.727 404.05 708.581 403.863 710.437C403.675 712.292 402.758 713.997 401.314 715.176C399.869 716.355 398.015 716.912 396.16 716.725C394.305 716.537 392.6 715.62 391.421 714.176C390.241 712.731 389.684 710.877 389.872 709.022C390.059 707.167 390.976 705.462 392.421 704.283C393.865 703.103 395.719 702.546 397.574 702.734Z" fill="#537FE7"/>
</g>
<path d="M291.204 683.037L287.317 682.644C288.838 667.603 277.903 654.209 262.862 652.688C241.244 650.503 250.814 651.47 247.317 651.117C232.276 649.596 218.882 660.531 217.361 675.572L213.475 675.179C211.337 674.963 209.412 676.535 209.195 678.672L208.017 690.332C207.801 692.469 209.373 694.395 211.51 694.611L215.397 695.004L215.004 698.89C214.795 700.952 215.415 703.012 216.725 704.617C218.035 706.222 219.929 707.241 221.991 707.449L276.401 712.95C280.715 713.386 284.524 710.276 284.96 705.962L285.353 702.076L289.239 702.469C291.377 702.685 293.302 701.113 293.518 698.975L294.697 687.316C294.913 685.178 293.341 683.253 291.204 683.037ZM242.768 687.956C241.598 684.382 238.46 681.631 234.457 681.226C230.454 680.821 226.83 682.889 224.968 686.156C224.585 684.9 224.403 683.586 224.545 682.187C224.805 679.61 226.079 677.242 228.085 675.605C230.091 673.967 232.666 673.193 235.243 673.453C237.82 673.714 240.188 674.987 241.826 676.994C243.464 679 244.237 681.575 243.977 684.152C243.836 685.551 243.395 686.802 242.768 687.956ZM277.746 691.492C276.576 687.918 273.322 685.155 269.435 684.762C265.549 684.369 261.807 686.425 259.946 689.692C259.563 688.436 259.381 687.122 259.523 685.723C259.783 683.146 261.057 680.778 263.063 679.141C265.069 677.503 267.644 676.729 270.221 676.989C272.798 677.25 275.166 678.523 276.804 680.53C278.442 682.536 279.215 685.111 278.955 687.688C278.814 689.087 278.373 690.338 277.746 691.492Z" fill="#537FE7"/>
<path d="M281.195 665.527L282.558 652.049C283.809 651.486 284.889 650.604 285.691 649.491C286.493 648.378 286.987 647.073 287.125 645.708C287.263 644.344 287.038 642.967 286.475 641.716C285.912 640.465 285.029 639.385 283.916 638.584C282.802 637.782 281.497 637.288 280.133 637.151C278.768 637.014 277.391 637.239 276.14 637.803C274.89 638.367 273.81 639.25 273.009 640.363C272.208 641.477 271.715 642.782 271.578 644.147C271.287 647.023 272.587 649.706 274.785 651.263L273.422 664.741L281.195 665.527Z" fill="#537FE7"/>
<path d="M236.89 661.048L238.252 647.57C239.503 647.007 240.584 646.125 241.386 645.012C242.187 643.899 242.682 642.594 242.82 641.229C242.957 639.865 242.733 638.488 242.17 637.237C241.606 635.986 240.723 634.906 239.61 634.105C238.497 633.303 237.192 632.809 235.827 632.672C234.462 632.535 233.085 632.76 231.835 633.324C230.585 633.888 229.505 634.771 228.704 635.884C227.903 636.998 227.409 638.303 227.273 639.668C226.982 642.544 228.281 645.227 230.479 646.784L229.117 660.262L236.89 661.048Z" fill="#537FE7"/>
<g clip-path="url(#clip5_522_1209)">
<path d="M308.222 887.528C303.045 887.004 298.475 890.735 297.952 895.912L294.651 928.558L303.979 929.501C303.604 933.212 304.718 936.92 307.077 939.809C309.435 942.698 312.845 944.532 316.556 944.907C320.266 945.282 323.974 944.168 326.863 941.809C329.752 939.45 331.586 936.041 331.961 932.33L359.943 935.159C359.568 938.87 360.683 942.577 363.041 945.466C365.4 948.356 368.81 950.189 372.52 950.565C376.231 950.94 379.939 949.825 382.828 947.467C385.717 945.108 387.551 941.698 387.926 937.988L397.253 938.931L398.668 924.939C399.191 919.763 395.46 915.192 390.283 914.669L380.956 913.726L381.899 904.399C382.422 899.222 378.691 894.652 373.514 894.128L308.222 887.528ZM356.484 899.474L375.139 901.36L373.96 913.019L355.305 911.133L356.484 899.474ZM305.183 894.288L323.838 896.173L322.659 907.833L304.004 905.947L305.183 894.288ZM330.833 896.881L349.488 898.767L348.31 910.426L329.655 908.54L330.833 896.881ZM318.677 923.92C320.532 924.108 322.237 925.025 323.417 926.469C324.596 927.914 325.153 929.768 324.966 931.623C324.778 933.478 323.861 935.183 322.416 936.362C320.972 937.542 319.118 938.099 317.263 937.911C315.407 937.724 313.703 936.807 312.523 935.362C311.344 933.918 310.787 932.064 310.974 930.208C311.162 928.353 312.079 926.648 313.523 925.469C314.968 924.29 316.822 923.732 318.677 923.92ZM374.642 929.578C376.497 929.765 378.202 930.682 379.381 932.127C380.561 933.571 381.118 935.425 380.93 937.281C380.743 939.136 379.826 940.841 378.381 942.02C376.937 943.199 375.083 943.756 373.227 943.569C371.372 943.381 369.667 942.464 368.488 941.02C367.309 939.575 366.752 937.721 366.939 935.866C367.127 934.011 368.044 932.306 369.488 931.127C370.933 929.947 372.787 929.39 374.642 929.578Z" fill="#537FE7"/>
</g>
<path d="M268.271 909.881L264.385 909.488C265.905 894.447 254.97 881.053 239.93 879.532C218.311 877.347 227.882 878.314 224.384 877.961C209.343 876.44 195.949 887.375 194.429 902.416L190.542 902.023C188.405 901.807 186.479 903.379 186.263 905.516L185.084 917.176C184.868 919.313 186.44 921.239 188.578 921.455L192.464 921.848L192.071 925.734C191.863 927.796 192.482 929.856 193.792 931.461C195.103 933.066 196.997 934.085 199.058 934.293L253.469 939.794C257.782 940.23 261.591 937.12 262.027 932.806L262.42 928.92L266.307 929.313C268.444 929.529 270.37 927.957 270.586 925.819L271.765 914.16C271.981 912.022 270.409 910.097 268.271 909.881ZM219.835 914.8C218.665 911.226 215.528 908.475 211.525 908.07C207.522 907.665 203.897 909.733 202.035 913C201.652 911.744 201.471 910.43 201.612 909.031C201.873 906.454 203.146 904.086 205.152 902.449C207.159 900.811 209.734 900.037 212.311 900.297C214.887 900.558 217.255 901.831 218.893 903.838C220.531 905.844 221.305 908.419 221.044 910.996C220.903 912.395 220.462 913.646 219.835 914.8ZM254.813 918.336C253.643 914.762 250.389 911.999 246.503 911.606C242.616 911.213 238.875 913.269 237.013 916.536C236.63 915.28 236.449 913.966 236.59 912.567C236.851 909.99 238.124 907.622 240.13 905.985C242.137 904.347 244.712 903.573 247.288 903.833C249.865 904.094 252.233 905.367 253.871 907.374C255.509 909.38 256.283 911.955 256.022 914.532C255.881 915.931 255.44 917.182 254.813 918.336Z" fill="#537FE7"/>
<path d="M258.263 892.371L259.625 878.893C260.876 878.33 261.957 877.448 262.758 876.335C263.56 875.222 264.055 873.917 264.192 872.552C264.33 871.188 264.106 869.811 263.542 868.56C262.979 867.309 262.096 866.229 260.983 865.428C259.87 864.626 258.565 864.132 257.2 863.995C255.835 863.858 254.458 864.083 253.208 864.647C251.957 865.211 250.877 866.094 250.077 867.207C249.276 868.321 248.782 869.626 248.646 870.991C248.355 873.867 249.654 876.55 251.852 878.107L250.49 891.585L258.263 892.371Z" fill="#537FE7"/>
<path d="M213.957 887.892L215.32 874.414C216.571 873.851 217.651 872.969 218.453 871.856C219.255 870.743 219.749 869.438 219.887 868.073C220.025 866.709 219.8 865.332 219.237 864.081C218.674 862.83 217.791 861.75 216.678 860.949C215.564 860.147 214.259 859.653 212.895 859.516C211.53 859.379 210.153 859.604 208.902 860.168C207.652 860.732 206.572 861.615 205.771 862.728C204.97 863.842 204.477 865.147 204.34 866.512C204.049 869.388 205.349 872.071 207.547 873.628L206.184 887.106L213.957 887.892Z" fill="#537FE7"/>
<path d="M319.688 774.106C314.512 773.582 309.941 777.314 309.418 782.49L306.118 815.136L315.445 816.079C315.07 819.79 316.184 823.498 318.543 826.387C320.901 829.276 324.311 831.11 328.022 831.485C331.733 831.86 335.44 830.746 338.329 828.387C341.218 826.029 343.052 822.619 343.427 818.908L371.41 821.737C371.035 825.448 372.149 829.155 374.508 832.045C376.866 834.934 380.276 836.768 383.987 837.143C387.697 837.518 391.405 836.403 394.294 834.045C397.183 831.686 399.017 828.277 399.392 824.566L408.72 825.509L410.134 811.518C410.657 806.341 406.926 801.771 401.75 801.247L392.422 800.304L393.365 790.977C393.888 785.8 390.157 781.23 384.981 780.706L319.688 774.106ZM367.95 786.052L386.605 787.938L385.426 799.597L366.772 797.711L367.95 786.052ZM316.649 780.866L335.304 782.752L334.125 794.411L315.471 792.525L316.649 780.866ZM342.3 783.459L360.955 785.345L359.776 797.004L341.121 795.118L342.3 783.459ZM330.143 810.498C331.999 810.686 333.704 811.603 334.883 813.047C336.062 814.492 336.619 816.346 336.432 818.201C336.244 820.056 335.327 821.761 333.883 822.94C332.438 824.12 330.584 824.677 328.729 824.489C326.874 824.302 325.169 823.385 323.99 821.94C322.81 820.496 322.253 818.642 322.441 816.787C322.628 814.931 323.545 813.226 324.99 812.047C326.434 810.868 328.288 810.311 330.143 810.498ZM386.108 816.156C387.964 816.343 389.668 817.26 390.848 818.705C392.027 820.149 392.584 822.003 392.397 823.859C392.209 825.714 391.292 827.419 389.848 828.598C388.403 829.777 386.549 830.335 384.694 830.147C382.838 829.959 381.134 829.043 379.954 827.598C378.775 826.153 378.218 824.3 378.405 822.444C378.593 820.589 379.51 818.884 380.954 817.705C382.399 816.525 384.253 815.968 386.108 816.156Z" fill="#537FE7"/>
<path d="M279.737 796.459L275.851 796.066C277.371 781.025 266.437 767.631 251.396 766.111C229.778 763.925 239.348 764.893 235.85 764.539C220.81 763.018 207.415 773.953 205.895 788.994L202.008 788.601C199.871 788.385 197.945 789.957 197.729 792.094L196.55 803.754C196.334 805.891 197.906 807.817 200.044 808.033L203.93 808.426L203.538 812.312C203.329 814.374 203.948 816.434 205.259 818.039C206.569 819.644 208.463 820.663 210.525 820.871L264.935 826.372C269.249 826.808 273.057 823.699 273.494 819.385L273.886 815.498L277.773 815.891C279.91 816.107 281.836 814.535 282.052 812.397L283.231 800.738C283.447 798.601 281.875 796.675 279.737 796.459ZM231.302 801.378C230.132 797.804 226.994 795.053 222.991 794.648C218.988 794.244 215.363 796.311 213.502 799.578C213.118 798.322 212.937 797.008 213.078 795.609C213.339 793.032 214.612 790.665 216.619 789.027C218.625 787.389 221.2 786.615 223.777 786.875C226.354 787.136 228.722 788.409 230.359 790.416C231.997 792.422 232.771 794.997 232.511 797.574C232.369 798.973 231.929 800.224 231.302 801.378ZM266.28 804.914C265.11 801.34 261.855 798.577 257.969 798.184C254.083 797.791 250.341 799.847 248.48 803.114C248.096 801.858 247.915 800.544 248.056 799.145C248.317 796.568 249.59 794.201 251.597 792.563C253.603 790.925 256.178 790.151 258.755 790.411C261.332 790.672 263.7 791.945 265.337 793.952C266.975 795.958 267.749 798.533 267.489 801.11C267.347 802.509 266.907 803.76 266.28 804.914Z" fill="#537FE7"/>
<path d="M269.729 778.949L271.091 765.471C272.342 764.908 273.423 764.026 274.225 762.913C275.026 761.8 275.521 760.495 275.659 759.131C275.796 757.766 275.572 756.389 275.009 755.138C274.445 753.887 273.563 752.807 272.449 752.006C271.336 751.205 270.031 750.71 268.666 750.573C267.301 750.436 265.925 750.661 264.674 751.225C263.424 751.789 262.344 752.672 261.543 753.785C260.742 754.899 260.248 756.204 260.112 757.569C259.821 760.445 261.12 763.128 263.319 764.685L261.956 778.163L269.729 778.949Z" fill="#537FE7"/>
<path d="M225.424 774.47L226.786 760.992C228.037 760.429 229.118 759.547 229.919 758.434C230.721 757.321 231.216 756.016 231.353 754.652C231.491 753.287 231.267 751.91 230.703 750.659C230.14 749.408 229.257 748.328 228.144 747.527C227.03 746.725 225.726 746.231 224.361 746.094C222.996 745.957 221.619 746.182 220.369 746.746C219.118 747.31 218.038 748.193 217.237 749.306C216.437 750.42 215.943 751.725 215.806 753.09C215.516 755.966 216.815 758.649 219.013 760.206L217.651 773.684L225.424 774.47Z" fill="#537FE7"/>
<path d="M157.929 878.665C155.351 904.17 115.448 920.991 113.751 921.681C113.303 921.866 112.817 921.938 112.335 921.889C111.853 921.841 111.391 921.673 110.989 921.402C109.465 920.386 73.7356 895.919 76.314 870.414C76.9262 864.426 79.8888 858.925 84.5519 855.118C89.215 851.311 95.1978 849.509 101.188 850.108C108.712 850.869 114.972 854.77 118.525 860.654C123.184 855.6 130.099 853.031 137.623 853.792C143.611 854.404 149.113 857.366 152.919 862.03C156.726 866.693 158.528 872.675 157.929 878.665Z" fill="#537FE7"/>
<path d="M4.12865 873.747C6.26619 873.963 8.17371 873.386 9.85121 872.017C11.5287 870.647 12.4741 868.895 12.6873 866.76C12.9034 864.622 12.3267 862.715 10.9573 861.037C9.58778 859.36 7.83544 858.414 5.70023 858.201C3.56268 857.985 1.65516 858.562 -0.022337 859.931C-1.69984 861.301 -2.6452 863.053 -2.85844 865.188C-3.07454 867.326 -2.49784 869.233 -1.12837 870.911C0.241096 872.588 1.99344 873.534 4.12865 873.747ZM0.347044 911.154C-0.171148 911.101 -0.679516 910.952 -1.17806 910.705C-1.67661 910.458 -2.10384 910.154 -2.45974 909.79C-11.072 900.478 -17.3482 892.007 -21.2882 884.377C-25.2282 876.747 -26.884 869.824 -26.2557 863.608C-25.2734 853.892 -21.3649 846.467 -14.5301 841.335C-7.69536 836.202 -0.166118 834.051 8.05759 834.882C16.2839 835.714 23.2316 839.328 28.9008 845.725C34.57 852.122 36.9122 860.179 35.9274 869.894C35.2988 876.113 32.2907 882.566 26.9033 889.253C21.5158 895.94 13.6714 902.983 3.36992 910.38C2.94854 910.664 2.46892 910.878 1.93109 911.019C1.39325 911.161 0.865236 911.206 0.347044 911.154Z" fill="#537FE7"/>
<path d="M169.396 765.243C166.817 790.748 126.914 807.569 125.217 808.259C124.77 808.445 124.283 808.516 123.801 808.467C123.319 808.419 122.857 808.251 122.455 807.98C120.931 806.965 85.2019 782.497 87.7803 756.993C88.3925 751.004 91.3551 745.503 96.0182 741.696C100.681 737.889 106.664 736.088 112.654 736.686C120.178 737.447 126.438 741.348 129.992 747.232C134.651 742.179 141.565 739.609 149.089 740.37C155.078 740.982 160.579 743.945 164.386 748.608C168.193 753.271 169.994 759.253 169.396 765.243Z" fill="#537FE7"/>
<path d="M15.5947 760.325C17.7323 760.541 19.6398 759.964 21.3173 758.595C22.9948 757.225 23.9401 755.473 24.1534 753.338C24.3695 751.2 23.7928 749.293 22.4233 747.615C21.0538 745.938 19.3015 744.992 17.1663 744.779C15.0287 744.563 13.1212 745.14 11.4437 746.509C9.76623 747.879 8.82086 749.631 8.60762 751.766C8.39153 753.904 8.96822 755.811 10.3377 757.489C11.7072 759.166 13.4595 760.112 15.5947 760.325ZM11.8131 797.732C11.2949 797.68 10.7865 797.53 10.288 797.283C9.78945 797.037 9.36223 796.732 9.00632 796.368C0.39404 787.057 -5.88211 778.586 -9.82213 770.955C-13.7621 763.325 -15.418 756.402 -14.7896 750.186C-13.8074 740.47 -9.89886 733.046 -3.06408 727.913C3.7707 722.78 11.2999 720.629 19.5237 721.461C27.75 722.292 34.6977 725.906 40.3669 732.303C46.0361 738.7 48.3783 746.757 47.3934 756.473C46.7648 762.691 43.7568 769.144 38.3693 775.831C32.9819 782.518 25.1375 789.561 14.836 796.958C14.4146 797.242 13.935 797.456 13.3972 797.598C12.8593 797.74 12.3313 797.784 11.8131 797.732Z" fill="#537FE7"/>
<defs>
<clipPath id="clip0_522_1209">
<rect width="112.5" height="112.5" fill="white" transform="translate(-89.9128 33.0247) rotate(5.77262)"/>
</clipPath>
<clipPath id="clip1_522_1209">
<rect width="112.5" height="112.5" fill="white" transform="translate(387.18 -33.3254) rotate(5.77262)"/>
</clipPath>
<clipPath id="clip2_522_1209">
<rect width="112.5" height="112.5" fill="white" transform="translate(365.052 185.559) rotate(5.77262)"/>
</clipPath>
<clipPath id="clip3_522_1209">
<rect width="112.5" height="112.5" fill="white" transform="translate(342.12 412.403) rotate(5.77262)"/>
</clipPath>
<clipPath id="clip4_522_1209">
<rect width="112.5" height="112.5" fill="white" transform="translate(319.992 631.287) rotate(5.77262)"/>
</clipPath>
<clipPath id="clip5_522_1209">
<rect width="112.5" height="112.5" fill="white" transform="translate(297.06 858.131) rotate(5.77262)"/>
</clipPath>
</defs>
</svg>
