<svg width="40" height="40" viewBox="0 0 40 40" fill="none" xmlns="http://www.w3.org/2000/svg">
<path d="M20 3.75C17.1945 3.74939 14.4366 4.47514 11.9948 5.85661C9.55296 7.23808 7.51039 9.22821 6.0659 11.6333C4.62141 14.0384 3.8242 16.7764 3.75186 19.581C3.67953 22.3856 4.33454 25.1612 5.65313 27.6375L3.87969 32.9578C3.7328 33.3983 3.71148 33.871 3.81813 34.3229C3.92478 34.7749 4.15519 35.1881 4.48352 35.5165C4.81186 35.8448 5.22515 36.0752 5.67708 36.1819C6.12901 36.2885 6.6017 36.2672 7.04219 36.1203L12.3625 34.3469C14.5418 35.506 16.9566 36.1534 19.4235 36.24C21.8904 36.3266 24.3446 35.85 26.5998 34.8465C28.855 33.8429 30.852 32.3388 32.4391 30.4483C34.0262 28.5577 35.1618 26.3304 35.7596 23.9355C36.3574 21.5406 36.4017 19.0409 35.8893 16.6263C35.3768 14.2117 34.321 11.9455 32.8019 9.99987C31.2829 8.05421 29.3405 6.48019 27.1224 5.39727C24.9042 4.31436 22.4684 3.75101 20 3.75ZM13.125 21.875C12.7542 21.875 12.3917 21.765 12.0833 21.559C11.775 21.353 11.5346 21.0601 11.3927 20.7175C11.2508 20.3749 11.2137 19.9979 11.286 19.6342C11.3584 19.2705 11.537 18.9364 11.7992 18.6742C12.0614 18.412 12.3955 18.2334 12.7592 18.161C13.1229 18.0887 13.4999 18.1258 13.8425 18.2677C14.1851 18.4096 14.478 18.65 14.684 18.9583C14.89 19.2666 15 19.6292 15 20C15 20.4973 14.8025 20.9742 14.4508 21.3258C14.0992 21.6775 13.6223 21.875 13.125 21.875ZM20 21.875C19.6292 21.875 19.2667 21.765 18.9583 21.559C18.65 21.353 18.4096 21.0601 18.2677 20.7175C18.1258 20.3749 18.0887 19.9979 18.161 19.6342C18.2334 19.2705 18.412 18.9364 18.6742 18.6742C18.9364 18.412 19.2705 18.2334 19.6342 18.161C19.9979 18.0887 20.3749 18.1258 20.7175 18.2677C21.0601 18.4096 21.353 18.65 21.559 18.9583C21.765 19.2666 21.875 19.6292 21.875 20C21.875 20.4973 21.6775 20.9742 21.3258 21.3258C20.9742 21.6775 20.4973 21.875 20 21.875ZM26.875 21.875C26.5042 21.875 26.1417 21.765 25.8333 21.559C25.525 21.353 25.2846 21.0601 25.1427 20.7175C25.0008 20.3749 24.9637 19.9979 25.036 19.6342C25.1084 19.2705 25.287 18.9364 25.5492 18.6742C25.8114 18.412 26.1455 18.2334 26.5092 18.161C26.8729 18.0887 27.2499 18.1258 27.5925 18.2677C27.9351 18.4096 28.228 18.65 28.434 18.9583C28.64 19.2666 28.75 19.6292 28.75 20C28.75 20.4973 28.5525 20.9742 28.2008 21.3258C27.8492 21.6775 27.3723 21.875 26.875 21.875Z" fill="#6D6D6D"/>
</svg>
