<svg width="40" height="40" viewBox="0 0 40 40" fill="none" xmlns="http://www.w3.org/2000/svg">
<path d="M10 22.5V20H12.5V22.5H10ZM2.5 10C2.5 8.67392 3.02678 7.40215 3.96447 6.46447C4.90215 5.52678 6.17392 5 7.5 5H25C26.3261 5 27.5979 5.52678 28.5355 6.46447C29.4732 7.40215 30 8.67392 30 10V26.25C30 26.5815 30.1317 26.8995 30.3661 27.1339C30.6005 27.3683 30.9185 27.5 31.25 27.5C31.5815 27.5 31.8995 27.3683 32.1339 27.1339C32.3683 26.8995 32.5 26.5815 32.5 26.25V10C33.8261 10 35.0979 10.5268 36.0355 11.4645C36.9732 12.4021 37.5 13.6739 37.5 15V26.25C37.5 27.9076 36.8415 29.4973 35.6694 30.6694C34.4973 31.8415 32.9076 32.5 31.25 32.5H8.75C7.0924 32.5 5.50269 31.8415 4.33058 30.6694C3.15848 29.4973 2.5 27.9076 2.5 26.25V10ZM8.75 12.5C8.41848 12.5 8.10054 12.6317 7.86612 12.8661C7.6317 13.1005 7.5 13.4185 7.5 13.75C7.5 14.0815 7.6317 14.3995 7.86612 14.6339C8.10054 14.8683 8.41848 15 8.75 15H23.75C24.0815 15 24.3995 14.8683 24.6339 14.6339C24.8683 14.3995 25 14.0815 25 13.75C25 13.4185 24.8683 13.1005 24.6339 12.8661C24.3995 12.6317 24.0815 12.5 23.75 12.5H8.75ZM8.75 17.5C8.41848 17.5 8.10054 17.6317 7.86612 17.8661C7.6317 18.1005 7.5 18.4185 7.5 18.75V23.75C7.5 24.0815 7.6317 24.3995 7.86612 24.6339C8.10054 24.8683 8.41848 25 8.75 25H13.75C14.0815 25 14.3995 24.8683 14.6339 24.6339C14.8683 24.3995 15 24.0815 15 23.75V18.75C15 18.4185 14.8683 18.1005 14.6339 17.8661C14.3995 17.6317 14.0815 17.5 13.75 17.5H8.75ZM18.75 17.5C18.4185 17.5 18.1005 17.6317 17.8661 17.8661C17.6317 18.1005 17.5 18.4185 17.5 18.75C17.5 19.0815 17.6317 19.3995 17.8661 19.6339C18.1005 19.8683 18.4185 20 18.75 20H23.75C24.0815 20 24.3995 19.8683 24.6339 19.6339C24.8683 19.3995 25 19.0815 25 18.75C25 18.4185 24.8683 18.1005 24.6339 17.8661C24.3995 17.6317 24.0815 17.5 23.75 17.5H18.75ZM18.75 22.5C18.4185 22.5 18.1005 22.6317 17.8661 22.8661C17.6317 23.1005 17.5 23.4185 17.5 23.75C17.5 24.0815 17.6317 24.3995 17.8661 24.6339C18.1005 24.8683 18.4185 25 18.75 25H23.75C24.0815 25 24.3995 24.8683 24.6339 24.6339C24.8683 24.3995 25 24.0815 25 23.75C25 23.4185 24.8683 23.1005 24.6339 22.8661C24.3995 22.6317 24.0815 22.5 23.75 22.5H18.75Z" fill="#6D6D6D"/>
</svg>
