<svg width="40" height="40" viewBox="0 0 40 40" fill="none" xmlns="http://www.w3.org/2000/svg">
<path d="M10.0267 7.50325C9.37469 7.50259 8.72898 7.63052 8.1265 7.87972C7.52403 8.12892 6.97661 8.49449 6.51559 8.95551C6.05457 9.41653 5.689 9.96394 5.43981 10.5664C5.19061 11.1689 5.06268 11.8146 5.06333 12.4666C5.06333 16.1883 10.0267 21.6833 10.0267 21.6833C10.0267 21.6833 14.99 16.1883 14.99 12.4666C14.9907 11.8146 14.8627 11.1689 14.6135 10.5664C14.3643 9.96394 13.9988 9.41653 13.5377 8.95551C13.0767 8.49449 12.5293 8.12892 11.9268 7.87972C11.3244 7.63052 10.6786 7.50259 10.0267 7.50325ZM10.0267 14.2383C9.67626 14.2383 9.33373 14.1343 9.04238 13.9397C8.75103 13.745 8.52395 13.4683 8.38986 13.1446C8.25577 12.8208 8.22068 12.4646 8.28904 12.1209C8.3574 11.7773 8.52614 11.4616 8.77391 11.2138C9.02168 10.9661 9.33736 10.7973 9.68103 10.729C10.0247 10.6606 10.3809 10.6957 10.7047 10.8298C11.0284 10.9639 11.3051 11.1909 11.4998 11.4823C11.6944 11.7736 11.7983 12.1162 11.7983 12.4666C11.7979 12.9363 11.6111 13.3867 11.2789 13.7189C10.9468 14.051 10.4964 14.2378 10.0267 14.2383ZM35.04 18.8266V11.6599C35.0283 10.9073 34.9139 10.1599 34.7 9.43825C34.1531 7.53045 32.9428 5.88072 31.2872 4.78635C29.6315 3.69199 27.6395 3.22496 25.67 3.46944C23.7004 3.71392 21.883 4.65383 20.5452 6.11978C19.2074 7.58573 18.4372 9.48131 18.3733 11.4649V11.8783L18.3567 13.3283V29.9149H18.35V29.9833C18.35 30.8673 17.9988 31.7151 17.3737 32.3403C16.7486 32.9654 15.9007 33.3166 15.0167 33.3166C14.1326 33.3166 13.2848 32.9654 12.6596 32.3403C12.0345 31.7151 11.6833 30.8673 11.6833 29.9833C11.6833 29.9633 11.6883 29.9432 11.69 29.9216H11.6833V26.6833H8.35V30.0166H8.35333C8.35444 31.7838 9.05753 33.4782 10.3079 34.7271C11.5583 35.9759 13.2536 36.6769 15.0208 36.6758C16.7881 36.6746 18.4825 35.9716 19.7313 34.7212C20.9801 33.4708 21.6811 31.7755 21.68 30.0082H21.6833V28.3716H21.6917V14.9949L21.7083 11.8783V11.4666C21.7558 10.1545 22.3174 8.91374 23.2717 8.01205C24.226 7.11035 25.4966 6.62005 26.8092 6.64696C28.1219 6.67387 29.3713 7.21583 30.2879 8.15588C31.2045 9.09593 31.7146 10.3587 31.7083 11.6716V18.7966C31.0701 19.1577 30.5688 19.7193 30.2823 20.3944C29.9957 21.0694 29.9399 21.8201 30.1234 22.5301C30.3069 23.24 30.7196 23.8697 31.2973 24.3212C31.8751 24.7728 32.5858 25.0212 33.3191 25.0278C34.0523 25.0344 34.7673 24.7989 35.3532 24.3577C35.939 23.9166 36.3629 23.2946 36.5592 22.588C36.7554 21.8814 36.7131 21.1298 36.4387 20.4498C36.1644 19.7697 35.6716 19.1991 35.04 18.8266Z" fill="#6D6D6D"/>
</svg>
