<svg width="25" height="25" viewBox="0 0 25 25" fill="none" xmlns="http://www.w3.org/2000/svg">
<path d="M13.3489 12.7053L5.50309 14.0125C5.41288 14.0276 5.32824 14.0661 5.25765 14.1243C5.18707 14.1824 5.13304 14.2581 5.101 14.3438L2.39579 21.5917C2.13746 22.2584 2.83434 22.8938 3.47392 22.573L22.2239 13.198C22.3535 13.133 22.4625 13.0333 22.5386 12.9099C22.6148 12.7866 22.6551 12.6445 22.6551 12.4995C22.6551 12.3546 22.6148 12.2125 22.5386 12.0891C22.4625 11.9658 22.3535 11.866 22.2239 11.8011L3.47392 2.42609C2.83434 2.1063 2.13746 2.74171 2.39579 3.40734L5.10204 10.6553C5.13408 10.7409 5.18811 10.8166 5.25869 10.8748C5.32928 10.9329 5.41393 10.9715 5.50413 10.9865L13.35 12.2938C13.3989 12.3016 13.4435 12.3266 13.4756 12.3643C13.5078 12.402 13.5255 12.45 13.5255 12.4995C13.5255 12.5491 13.5078 12.597 13.4756 12.6347C13.4435 12.6724 13.3989 12.6974 13.35 12.7053H13.3489Z" fill="white"/>
</svg>
