<svg width="200" height="200" viewBox="0 0 200 200" fill="none" xmlns="http://www.w3.org/2000/svg">
<path d="M183 114.017H174.667C174.667 81.7669 148.583 55.6836 116.333 55.6836C69.9792 55.6836 90.5 55.6836 83 55.6836C50.75 55.6836 24.6667 81.7669 24.6667 114.017H16.3333C11.75 114.017 8 117.767 8 122.35V147.35C8 151.934 11.75 155.684 16.3333 155.684H24.6667V164.017C24.6667 168.437 26.4226 172.676 29.5482 175.802C32.6738 178.928 36.9131 180.684 41.3333 180.684H158C167.25 180.684 174.667 173.267 174.667 164.017V155.684H183C187.583 155.684 191.333 151.934 191.333 147.35V122.35C191.333 117.767 187.583 114.017 183 114.017ZM81.25 134.85C78 127.517 70.75 122.35 62.1667 122.35C53.5833 122.35 46.3333 127.517 43.0833 134.85C42 132.267 41.3333 129.517 41.3333 126.517C41.3333 120.992 43.5283 115.693 47.4353 111.786C51.3423 107.879 56.6413 105.684 62.1667 105.684C67.692 105.684 72.991 107.879 76.8981 111.786C80.8051 115.693 83 120.992 83 126.517C83 129.517 82.3333 132.267 81.25 134.85ZM156.25 134.85C153 127.517 145.5 122.35 137.167 122.35C128.833 122.35 121.333 127.517 118.083 134.85C117 132.267 116.333 129.517 116.333 126.517C116.333 120.992 118.528 115.693 122.435 111.786C126.342 107.879 131.641 105.684 137.167 105.684C142.692 105.684 147.991 107.879 151.898 111.786C155.805 115.693 158 120.992 158 126.517C158 129.517 157.333 132.267 156.25 134.85Z" fill="white"/>
<path d="M158 79L158 50.1004C160.534 48.6373 162.639 46.5326 164.101 43.9981C165.564 41.4637 166.334 38.5887 166.333 35.6624C166.333 32.7361 165.561 29.8615 164.097 27.3278C162.633 24.7941 160.528 22.6905 157.993 21.2286C155.458 19.7668 152.582 18.9981 149.656 19C146.73 19.0019 143.855 19.7742 141.322 21.2393C138.789 22.7044 136.686 24.8107 135.225 27.3463C133.765 29.8819 132.997 32.7574 133 35.6838C133 41.8504 136.333 47.2671 141.333 50.1004V79H158Z" fill="white"/>
<path d="M63 79L63 50.1004C65.5343 48.6373 67.6386 46.5326 69.1015 43.9981C70.5643 41.4637 71.3341 38.5887 71.3333 35.6624C71.3326 32.7361 70.5614 29.8615 69.0972 27.3278C67.6331 24.7941 65.5276 22.6905 62.9926 21.2286C60.4576 19.7668 57.5823 18.9981 54.656 19C51.7297 19.0019 48.8554 19.7742 46.3222 21.2393C43.7891 22.7044 41.6863 24.8107 40.2254 27.3463C38.7645 29.8819 37.997 32.7574 38 35.6838C38 41.8504 41.3333 47.2671 46.3333 50.1004V79H63Z" fill="white"/>
</svg>
